<svg width="933" height="241" viewBox="0 0 933 241" fill="none" xmlns="http://www.w3.org/2000/svg">
<path d="M86.8187 63.7336C91.2716 59.3835 97.2601 56.9642 103.485 57.0004C109.71 57.0367 115.67 59.5255 120.072 63.9272C124.474 68.3289 126.963 74.2884 127 80.5132C127.036 86.738 124.616 92.7262 120.266 97.1788L114.939 102.505L117.611 105.176C120.592 108.158 122.266 112.202 122.266 116.418C122.266 120.634 120.592 124.677 117.611 127.659L110.137 135.132C109.391 135.877 108.379 136.295 107.324 136.295C106.269 136.294 105.258 135.874 104.512 135.128C103.767 134.381 103.349 133.369 103.349 132.315C103.35 131.26 103.77 130.248 104.516 129.503L111.99 122.038C113.48 120.547 114.317 118.526 114.317 116.418C114.317 114.31 113.48 112.288 111.99 110.797L109.318 108.126L45.8741 171.574C43.1808 174.268 39.7745 176.138 36.0553 176.964L4.84206 183.904C4.18864 184.05 3.50894 184.029 2.866 183.842C2.22307 183.655 1.63774 183.309 1.16431 182.836C0.690882 182.362 0.344702 181.777 0.157884 181.134C-0.0289331 180.491 -0.0503334 179.812 0.0956675 179.158L7.07612 147.756C7.87116 144.163 9.68385 140.864 12.2836 138.264L86.8187 63.7336V63.7336Z" fill="white"/>
<path d="M222.656 57.1406C228.776 57.1406 234.766 58.1823 240.625 60.2656C246.484 62.349 251.758 65.4089 256.445 69.4453C261.263 73.4818 265.039 78.3646 267.773 84.0938C270.638 89.6927 272.07 96.138 272.07 103.43C272.07 112.284 269.792 120.161 265.234 127.062C260.807 133.833 254.883 139.172 247.461 143.078C240.039 146.984 231.966 148.938 223.242 148.938C217.383 148.938 212.109 148.352 207.422 147.18C202.734 146.008 198.828 144.641 195.703 143.078V188H168.555V57.1406H222.656ZM195.703 82.5312V121.203C198.568 122.375 202.018 123.417 206.055 124.328C210.221 125.109 214.453 125.5 218.75 125.5C226.562 125.5 232.747 123.352 237.305 119.055C241.992 114.628 244.336 109.419 244.336 103.43C244.336 96.5286 241.732 91.3203 236.523 87.8047C231.315 84.2891 225.195 82.5312 218.164 82.5312H195.703ZM324.281 86.8281C333.917 86.8281 342.185 88.9115 349.086 93.0781C356.117 97.2448 361.456 103.039 365.102 110.461C368.878 117.753 370.766 126.216 370.766 135.852V146.398H299.281C300.583 153.039 303.839 158.378 309.047 162.414C314.255 166.451 320.635 168.469 328.188 168.469C335.349 168.469 341.859 167.036 347.719 164.172C353.578 161.307 358.266 158.378 361.781 155.383L361.586 178.43C358.461 181.164 353.773 183.964 347.523 186.828C341.404 189.562 334.633 190.93 327.211 190.93C317.445 190.93 308.526 188.716 300.453 184.289C292.51 179.862 286.13 173.807 281.312 166.125C276.625 158.443 274.281 149.654 274.281 139.758C274.281 130.122 276.43 121.333 280.727 113.391C285.023 105.448 290.948 99.0677 298.5 94.25C306.052 89.3021 314.646 86.8281 324.281 86.8281ZM323.695 108.508C317.576 108.508 312.432 110.396 308.266 114.172C304.099 117.948 301.234 123.026 299.672 129.406H346.938C346.417 122.375 343.812 117.167 339.125 113.781C334.438 110.266 329.294 108.508 323.695 108.508ZM404.227 89.3672V103.43C407.221 99.3932 411.258 95.6172 416.336 92.1016C421.544 88.5859 427.469 86.8281 434.109 86.8281C444.135 86.8281 452.534 90.2135 459.305 96.9844C466.076 103.755 469.461 113.911 469.461 127.453V188H444.656L444.461 130.773C444.461 124.133 442.833 119.185 439.578 115.93C436.453 112.674 432.091 111.047 426.492 111.047C422.065 111.047 417.898 112.479 413.992 115.344C410.216 118.208 406.961 121.594 404.227 125.5V188H379.422V89.3672H404.227ZM508.781 89.3672V101.867C511.776 98.0911 515.357 94.6406 519.523 91.5156C523.82 88.3906 529.289 86.8281 535.93 86.8281C542.831 86.8281 549.081 88.4557 554.68 91.7109C560.279 94.8359 564.641 99.5885 567.766 105.969C571.672 100.63 576.229 96.138 581.438 92.4922C586.646 88.7161 592.701 86.8281 599.602 86.8281C606.242 86.8281 612.297 88.3906 617.766 91.5156C623.234 94.5104 627.596 99.0026 630.852 104.992C634.237 110.982 635.93 118.469 635.93 127.453V188H611.125L610.93 130.773C610.93 124.133 609.172 119.185 605.656 115.93C602.271 112.674 597.779 111.047 592.18 111.047C587.883 111.047 584.172 112.414 581.047 115.148C577.922 117.753 574.992 120.878 572.258 124.523V188H547.453L547.258 130.773C547.258 124.133 545.5 119.185 541.984 115.93C538.599 112.674 534.172 111.047 528.703 111.047C524.536 111.047 520.826 112.349 517.57 114.953C514.315 117.427 511.385 120.357 508.781 123.742V188H483.977V89.3672H508.781ZM689.312 86.8281C694.651 86.8281 700.055 88.0651 705.523 90.5391C710.992 93.013 715.549 96.3333 719.195 100.5V89.3672H744V188H719.195V171.398C716.331 176.737 712.164 181.359 706.695 185.266C701.227 189.042 694.846 190.93 687.555 190.93C679.612 190.93 672.255 188.911 665.484 184.875C658.844 180.839 653.505 174.979 649.469 167.297C645.432 159.615 643.414 150.305 643.414 139.367C643.414 128.43 645.432 119.055 649.469 111.242C653.635 103.43 659.169 97.4401 666.07 93.2734C673.102 88.9766 680.849 86.8281 689.312 86.8281ZM694.391 111.047C689.182 111.047 684.69 112.414 680.914 115.148C677.268 117.753 674.404 121.203 672.32 125.5C670.237 129.797 669.195 134.419 669.195 139.367C669.195 146.789 671.409 153.104 675.836 158.312C680.393 163.521 686.383 166.125 693.805 166.125C698.232 166.125 702.333 164.953 706.109 162.609C710.016 160.266 713.141 157.01 715.484 152.844C717.958 148.547 719.195 143.404 719.195 137.414V123.352C715.68 119.576 711.839 116.581 707.672 114.367C703.635 112.154 699.208 111.047 694.391 111.047ZM792.305 86.8281C798.424 86.8281 804.089 87.7396 809.297 89.5625C814.505 91.3854 818.542 93.4688 821.406 95.8125V117.688C818.281 115.604 814.44 113.586 809.883 111.633C805.456 109.68 800.833 108.703 796.016 108.703C791.328 108.703 787.617 109.745 784.883 111.828C782.148 113.911 780.781 116.385 780.781 119.25C780.781 121.333 781.562 123.286 783.125 125.109C784.688 126.802 787.682 128.299 792.109 129.602L803.242 133.312C818.216 137.74 825.703 146.398 825.703 159.289C825.703 165.409 823.945 170.878 820.43 175.695C817.044 180.383 812.422 184.094 806.562 186.828C800.833 189.562 794.453 190.93 787.422 190.93C780.781 190.93 774.336 189.888 768.086 187.805C761.836 185.721 757.083 183.443 753.828 180.969V159.289C756.302 160.982 759.297 162.609 762.812 164.172C766.328 165.734 769.974 167.036 773.75 168.078C777.526 168.99 780.977 169.445 784.102 169.445C789.049 169.445 792.826 168.599 795.43 166.906C798.164 165.083 799.531 162.544 799.531 159.289C799.531 156.815 798.424 154.862 796.211 153.43C793.997 151.997 790.742 150.565 786.445 149.133L774.336 144.836C766.784 142.362 761.576 138.846 758.711 134.289C755.846 129.732 754.414 124.328 754.414 118.078C754.414 111.828 755.977 106.424 759.102 101.867C762.357 97.1797 766.849 93.5339 772.578 90.9297C778.307 88.1953 784.883 86.8281 792.305 86.8281ZM857.602 47.375V133.312L897.836 89.3672H928.891L886.312 132.141L931.039 188H899.789L869.906 148.742L857.602 161.047V188H832.797V47.375H857.602Z" fill="white"/>
</svg>
